<mxfile host="app.diagrams.net" modified="2022-05-12T15:04:28.042Z" agent="5.0 (Windows NT 10.0; Win64; x64) AppleWebKit/537.36 (KHTML, like Gecko) Chrome/101.0.4951.64 Safari/537.36" etag="vWawsC8fAxc0q3b3xPPp" version="18.0.2" type="github">
  <diagram id="rG7M43OZuiDt8dMkOTZE" name="第 1 页">
    <mxGraphModel dx="633" dy="519" grid="1" gridSize="10" guides="1" tooltips="1" connect="1" arrows="1" fold="1" page="0" pageScale="1" pageWidth="1920" pageHeight="1200" math="0" shadow="0">
      <root>
        <mxCell id="0" />
        <mxCell id="1" parent="0" />
        <mxCell id="G-ANYAgQXVbQ02Pm5LA6-29" value="" style="rounded=1;whiteSpace=wrap;html=1;fillColor=#F7F7C6;allowArrows=1;" vertex="1" parent="1">
          <mxGeometry x="910" y="400" width="90" height="40" as="geometry" />
        </mxCell>
        <mxCell id="G-ANYAgQXVbQ02Pm5LA6-1" value="" style="rounded=1;whiteSpace=wrap;html=1;fillColor=#85DE85;" vertex="1" parent="1">
          <mxGeometry x="520" y="320" width="400" height="40" as="geometry" />
        </mxCell>
        <mxCell id="G-ANYAgQXVbQ02Pm5LA6-7" value="" style="verticalLabelPosition=bottom;verticalAlign=top;html=1;shape=mxgraph.basic.rect;fillColor2=none;strokeWidth=1;size=20;indent=5;rounded=1;fillColor=#F7F7C6;" vertex="1" parent="1">
          <mxGeometry x="680" y="320" width="80" height="40" as="geometry" />
        </mxCell>
        <mxCell id="G-ANYAgQXVbQ02Pm5LA6-9" value="" style="verticalLabelPosition=bottom;verticalAlign=top;html=1;shape=mxgraph.basic.rect;fillColor2=none;strokeWidth=1;size=20;indent=5;rounded=1;fillColor=#66B2FF;" vertex="1" parent="1">
          <mxGeometry x="600" y="320" width="80" height="40" as="geometry" />
        </mxCell>
        <mxCell id="G-ANYAgQXVbQ02Pm5LA6-11" value="" style="rounded=1;whiteSpace=wrap;html=1;fillColor=#F7F7C6;allowArrows=1;" vertex="1" parent="1">
          <mxGeometry x="910" y="320" width="90" height="40" as="geometry" />
        </mxCell>
        <mxCell id="G-ANYAgQXVbQ02Pm5LA6-10" value="" style="verticalLabelPosition=bottom;verticalAlign=top;html=1;shape=mxgraph.basic.rect;fillColor2=none;strokeWidth=1;size=20;indent=5;rounded=1;fillColor=#66B2FF;" vertex="1" parent="1">
          <mxGeometry x="840" y="320" width="80" height="40" as="geometry" />
        </mxCell>
        <mxCell id="G-ANYAgQXVbQ02Pm5LA6-16" value="Task 1" style="text;html=1;align=center;verticalAlign=middle;resizable=0;points=[];autosize=1;strokeColor=none;fillColor=none;fontSize=14;" vertex="1" parent="1">
          <mxGeometry x="530" y="330" width="60" height="20" as="geometry" />
        </mxCell>
        <mxCell id="G-ANYAgQXVbQ02Pm5LA6-17" value="Task 2" style="text;html=1;align=center;verticalAlign=middle;resizable=0;points=[];autosize=1;strokeColor=none;fillColor=none;fontSize=14;" vertex="1" parent="1">
          <mxGeometry x="610" y="330" width="60" height="20" as="geometry" />
        </mxCell>
        <mxCell id="G-ANYAgQXVbQ02Pm5LA6-18" value="Task 3" style="text;html=1;align=center;verticalAlign=middle;resizable=0;points=[];autosize=1;strokeColor=none;fillColor=none;fontSize=14;" vertex="1" parent="1">
          <mxGeometry x="690" y="330" width="60" height="20" as="geometry" />
        </mxCell>
        <mxCell id="G-ANYAgQXVbQ02Pm5LA6-19" value="Task 1" style="text;html=1;align=center;verticalAlign=middle;resizable=0;points=[];autosize=1;strokeColor=none;fillColor=none;fontSize=14;" vertex="1" parent="1">
          <mxGeometry x="770" y="330" width="60" height="20" as="geometry" />
        </mxCell>
        <mxCell id="G-ANYAgQXVbQ02Pm5LA6-20" value="Task 2" style="text;html=1;align=center;verticalAlign=middle;resizable=0;points=[];autosize=1;strokeColor=none;fillColor=none;fontSize=14;" vertex="1" parent="1">
          <mxGeometry x="850" y="330" width="60" height="20" as="geometry" />
        </mxCell>
        <mxCell id="G-ANYAgQXVbQ02Pm5LA6-21" value="Task 3" style="text;html=1;align=center;verticalAlign=middle;resizable=0;points=[];autosize=1;strokeColor=none;fillColor=none;fontSize=14;" vertex="1" parent="1">
          <mxGeometry x="930" y="330" width="60" height="20" as="geometry" />
        </mxCell>
        <mxCell id="G-ANYAgQXVbQ02Pm5LA6-22" value="" style="rounded=1;whiteSpace=wrap;html=1;fontSize=14;fillColor=#85DE85;" vertex="1" parent="1">
          <mxGeometry x="520" y="400" width="70" height="40" as="geometry" />
        </mxCell>
        <mxCell id="G-ANYAgQXVbQ02Pm5LA6-23" value="" style="rounded=0;whiteSpace=wrap;html=1;fontSize=14;fillColor=#66B2FF;" vertex="1" parent="1">
          <mxGeometry x="570" y="400" width="120" height="40" as="geometry" />
        </mxCell>
        <mxCell id="G-ANYAgQXVbQ02Pm5LA6-25" value="" style="rounded=0;whiteSpace=wrap;html=1;fontSize=14;fillColor=#F7F7C6;" vertex="1" parent="1">
          <mxGeometry x="690" y="400" width="70" height="40" as="geometry" />
        </mxCell>
        <mxCell id="G-ANYAgQXVbQ02Pm5LA6-26" value="Task 1" style="text;html=1;align=center;verticalAlign=middle;resizable=0;points=[];autosize=1;strokeColor=none;fillColor=none;fontSize=14;" vertex="1" parent="1">
          <mxGeometry x="516" y="410" width="60" height="20" as="geometry" />
        </mxCell>
        <mxCell id="G-ANYAgQXVbQ02Pm5LA6-27" value="" style="rounded=0;whiteSpace=wrap;html=1;fontSize=14;fillColor=#85DE85;" vertex="1" parent="1">
          <mxGeometry x="760" y="400" width="50" height="40" as="geometry" />
        </mxCell>
        <mxCell id="G-ANYAgQXVbQ02Pm5LA6-28" value="" style="rounded=0;whiteSpace=wrap;html=1;fontSize=14;fillColor=#66B2FF;" vertex="1" parent="1">
          <mxGeometry x="810" y="400" width="120" height="40" as="geometry" />
        </mxCell>
        <mxCell id="G-ANYAgQXVbQ02Pm5LA6-30" value="Task 2" style="text;html=1;align=center;verticalAlign=middle;resizable=0;points=[];autosize=1;strokeColor=none;fillColor=none;fontSize=14;" vertex="1" parent="1">
          <mxGeometry x="600" y="410" width="60" height="20" as="geometry" />
        </mxCell>
        <mxCell id="G-ANYAgQXVbQ02Pm5LA6-31" value="Task 2" style="text;html=1;align=center;verticalAlign=middle;resizable=0;points=[];autosize=1;strokeColor=none;fillColor=none;fontSize=14;" vertex="1" parent="1">
          <mxGeometry x="840" y="410" width="60" height="20" as="geometry" />
        </mxCell>
        <mxCell id="G-ANYAgQXVbQ02Pm5LA6-32" value="Task 1" style="text;html=1;align=center;verticalAlign=middle;resizable=0;points=[];autosize=1;strokeColor=none;fillColor=none;fontSize=14;" vertex="1" parent="1">
          <mxGeometry x="755" y="410" width="60" height="20" as="geometry" />
        </mxCell>
        <mxCell id="G-ANYAgQXVbQ02Pm5LA6-33" value="Task 3" style="text;html=1;align=center;verticalAlign=middle;resizable=0;points=[];autosize=1;strokeColor=none;fillColor=none;fontSize=14;" vertex="1" parent="1">
          <mxGeometry x="695" y="410" width="60" height="20" as="geometry" />
        </mxCell>
        <mxCell id="G-ANYAgQXVbQ02Pm5LA6-34" value="Task 3" style="text;html=1;align=center;verticalAlign=middle;resizable=0;points=[];autosize=1;strokeColor=none;fillColor=none;fontSize=14;" vertex="1" parent="1">
          <mxGeometry x="936" y="410" width="60" height="20" as="geometry" />
        </mxCell>
        <mxCell id="G-ANYAgQXVbQ02Pm5LA6-36" value="&lt;font style=&quot;font-size: 20px;&quot;&gt;RR&lt;/font&gt;" style="text;html=1;align=center;verticalAlign=middle;resizable=0;points=[];autosize=1;strokeColor=none;fillColor=none;fontSize=14;" vertex="1" parent="1">
          <mxGeometry x="460" y="330" width="40" height="20" as="geometry" />
        </mxCell>
        <mxCell id="G-ANYAgQXVbQ02Pm5LA6-37" value="&lt;font style=&quot;font-size: 20px;&quot;&gt;WRR&lt;/font&gt;" style="text;html=1;align=center;verticalAlign=middle;resizable=0;points=[];autosize=1;strokeColor=none;fillColor=none;fontSize=14;" vertex="1" parent="1">
          <mxGeometry x="440" y="410" width="60" height="20" as="geometry" />
        </mxCell>
        <mxCell id="G-ANYAgQXVbQ02Pm5LA6-39" value="40ms" style="text;html=1;align=center;verticalAlign=middle;resizable=0;points=[];autosize=1;strokeColor=none;fillColor=none;fontSize=14;" vertex="1" parent="1">
          <mxGeometry x="535" y="300" width="50" height="20" as="geometry" />
        </mxCell>
        <mxCell id="G-ANYAgQXVbQ02Pm5LA6-40" value="40ms" style="text;html=1;align=center;verticalAlign=middle;resizable=0;points=[];autosize=1;strokeColor=none;fillColor=none;fontSize=14;" vertex="1" parent="1">
          <mxGeometry x="615" y="300" width="50" height="20" as="geometry" />
        </mxCell>
        <mxCell id="G-ANYAgQXVbQ02Pm5LA6-41" value="40ms" style="text;html=1;align=center;verticalAlign=middle;resizable=0;points=[];autosize=1;strokeColor=none;fillColor=none;fontSize=14;" vertex="1" parent="1">
          <mxGeometry x="695" y="300" width="50" height="20" as="geometry" />
        </mxCell>
        <mxCell id="G-ANYAgQXVbQ02Pm5LA6-42" value="40ms" style="text;html=1;align=center;verticalAlign=middle;resizable=0;points=[];autosize=1;strokeColor=none;fillColor=none;fontSize=14;" vertex="1" parent="1">
          <mxGeometry x="775" y="300" width="50" height="20" as="geometry" />
        </mxCell>
        <mxCell id="G-ANYAgQXVbQ02Pm5LA6-43" value="40ms" style="text;html=1;align=center;verticalAlign=middle;resizable=0;points=[];autosize=1;strokeColor=none;fillColor=none;fontSize=14;" vertex="1" parent="1">
          <mxGeometry x="855" y="300" width="50" height="20" as="geometry" />
        </mxCell>
        <mxCell id="G-ANYAgQXVbQ02Pm5LA6-44" value="40ms" style="text;html=1;align=center;verticalAlign=middle;resizable=0;points=[];autosize=1;strokeColor=none;fillColor=none;fontSize=14;" vertex="1" parent="1">
          <mxGeometry x="936" y="300" width="50" height="20" as="geometry" />
        </mxCell>
        <mxCell id="G-ANYAgQXVbQ02Pm5LA6-45" value="25ms" style="text;html=1;align=center;verticalAlign=middle;resizable=0;points=[];autosize=1;strokeColor=none;fillColor=none;fontSize=14;" vertex="1" parent="1">
          <mxGeometry x="521" y="380" width="50" height="20" as="geometry" />
        </mxCell>
        <mxCell id="G-ANYAgQXVbQ02Pm5LA6-46" value="25ms" style="text;html=1;align=center;verticalAlign=middle;resizable=0;points=[];autosize=1;strokeColor=none;fillColor=none;fontSize=14;" vertex="1" parent="1">
          <mxGeometry x="760" y="380" width="50" height="20" as="geometry" />
        </mxCell>
        <mxCell id="G-ANYAgQXVbQ02Pm5LA6-47" value="60ms" style="text;html=1;align=center;verticalAlign=middle;resizable=0;points=[];autosize=1;strokeColor=none;fillColor=none;fontSize=14;" vertex="1" parent="1">
          <mxGeometry x="605" y="380" width="50" height="20" as="geometry" />
        </mxCell>
        <mxCell id="G-ANYAgQXVbQ02Pm5LA6-48" value="60ms" style="text;html=1;align=center;verticalAlign=middle;resizable=0;points=[];autosize=1;strokeColor=none;fillColor=none;fontSize=14;" vertex="1" parent="1">
          <mxGeometry x="845" y="380" width="50" height="20" as="geometry" />
        </mxCell>
        <mxCell id="G-ANYAgQXVbQ02Pm5LA6-49" value="35ms" style="text;html=1;align=center;verticalAlign=middle;resizable=0;points=[];autosize=1;strokeColor=none;fillColor=none;fontSize=14;" vertex="1" parent="1">
          <mxGeometry x="700" y="380" width="50" height="20" as="geometry" />
        </mxCell>
        <mxCell id="G-ANYAgQXVbQ02Pm5LA6-50" value="35ms" style="text;html=1;align=center;verticalAlign=middle;resizable=0;points=[];autosize=1;strokeColor=none;fillColor=none;fontSize=14;" vertex="1" parent="1">
          <mxGeometry x="940" y="380" width="50" height="20" as="geometry" />
        </mxCell>
        <mxCell id="G-ANYAgQXVbQ02Pm5LA6-61" value="" style="group" vertex="1" connectable="0" parent="1">
          <mxGeometry x="1000" y="320" width="60" height="40" as="geometry" />
        </mxCell>
        <mxCell id="G-ANYAgQXVbQ02Pm5LA6-51" value="" style="shape=waypoint;sketch=0;size=6;pointerEvents=1;points=[];fillColor=none;resizable=0;rotatable=0;perimeter=centerPerimeter;snapToPoint=1;rounded=1;fontSize=14;" vertex="1" parent="G-ANYAgQXVbQ02Pm5LA6-61">
          <mxGeometry width="40" height="40" as="geometry" />
        </mxCell>
        <mxCell id="G-ANYAgQXVbQ02Pm5LA6-54" value="" style="group" vertex="1" connectable="0" parent="G-ANYAgQXVbQ02Pm5LA6-61">
          <mxGeometry x="10" width="50" height="40" as="geometry" />
        </mxCell>
        <mxCell id="G-ANYAgQXVbQ02Pm5LA6-52" value="" style="shape=waypoint;sketch=0;size=6;pointerEvents=1;points=[];fillColor=none;resizable=0;rotatable=0;perimeter=centerPerimeter;snapToPoint=1;rounded=1;fontSize=14;" vertex="1" parent="G-ANYAgQXVbQ02Pm5LA6-54">
          <mxGeometry width="40" height="40" as="geometry" />
        </mxCell>
        <mxCell id="G-ANYAgQXVbQ02Pm5LA6-53" value="" style="shape=waypoint;sketch=0;size=6;pointerEvents=1;points=[];fillColor=none;resizable=0;rotatable=0;perimeter=centerPerimeter;snapToPoint=1;rounded=1;fontSize=14;" vertex="1" parent="G-ANYAgQXVbQ02Pm5LA6-54">
          <mxGeometry x="10" width="40" height="40" as="geometry" />
        </mxCell>
        <mxCell id="G-ANYAgQXVbQ02Pm5LA6-65" value="" style="group" vertex="1" connectable="0" parent="1">
          <mxGeometry x="1000" y="400" width="60" height="40" as="geometry" />
        </mxCell>
        <mxCell id="G-ANYAgQXVbQ02Pm5LA6-66" value="" style="shape=waypoint;sketch=0;size=6;pointerEvents=1;points=[];fillColor=none;resizable=0;rotatable=0;perimeter=centerPerimeter;snapToPoint=1;rounded=1;fontSize=14;" vertex="1" parent="G-ANYAgQXVbQ02Pm5LA6-65">
          <mxGeometry width="40" height="40" as="geometry" />
        </mxCell>
        <mxCell id="G-ANYAgQXVbQ02Pm5LA6-67" value="" style="group" vertex="1" connectable="0" parent="G-ANYAgQXVbQ02Pm5LA6-65">
          <mxGeometry x="10" width="50" height="40" as="geometry" />
        </mxCell>
        <mxCell id="G-ANYAgQXVbQ02Pm5LA6-68" value="" style="shape=waypoint;sketch=0;size=6;pointerEvents=1;points=[];fillColor=none;resizable=0;rotatable=0;perimeter=centerPerimeter;snapToPoint=1;rounded=1;fontSize=14;" vertex="1" parent="G-ANYAgQXVbQ02Pm5LA6-67">
          <mxGeometry width="40" height="40" as="geometry" />
        </mxCell>
        <mxCell id="G-ANYAgQXVbQ02Pm5LA6-69" value="" style="shape=waypoint;sketch=0;size=6;pointerEvents=1;points=[];fillColor=none;resizable=0;rotatable=0;perimeter=centerPerimeter;snapToPoint=1;rounded=1;fontSize=14;" vertex="1" parent="G-ANYAgQXVbQ02Pm5LA6-67">
          <mxGeometry x="10" width="40" height="40" as="geometry" />
        </mxCell>
      </root>
    </mxGraphModel>
  </diagram>
</mxfile>
